<svg width="362" height="321" viewBox="0 0 362 321" fill="none" xmlns="http://www.w3.org/2000/svg">
<path d="M9.81428 216.032C19.2106 204.793 32.4733 197.539 42.9 187.266C46.0545 184.157 49.0592 180.545 49.8385 176.184C51.517 166.818 42.8475 159.298 36.2349 152.461C17.9593 133.564 11.0656 103.31 22.605 79.6883C34.1443 56.0664 65.1506 42.9161 88.9973 53.9834C101.151 59.6256 110.877 70.5543 123.986 73.3117C135.848 75.8069 148.032 71.0151 158.522 64.942C169.631 58.5088 179.793 50.5654 188.719 41.3388C198.966 30.7623 207.733 18.3575 220.246 10.5797C231.939 3.31145 245.973 0.718847 259.727 0.0894291C276.032 -0.659878 295.409 3.12787 302.183 17.9829C307.6 29.8781 302.494 43.7478 296.702 55.467C290.909 67.1861 284.199 79.7445 286.605 92.5914C288.853 104.64 298.732 113.819 309.151 120.275C319.57 126.73 331.155 131.458 340.484 139.412C357.916 154.278 364.934 180.219 357.366 201.844C353.81 212.001 347.437 220.993 339.963 228.733C327.359 241.805 310.642 251.864 292.517 252.688C282.206 253.157 271.997 250.658 262.121 247.646C240.627 241.089 219.834 232.004 197.729 227.946C175.625 223.889 151.246 225.492 133.072 238.703C125.343 244.322 119.123 251.741 111.889 257.979C97.3184 270.548 78.2822 278.169 59.0625 277.835C39.1759 277.49 25.5085 267.952 9.78056 257.323C-4.77473 247.503 -0.518671 228.377 9.81428 216.032Z" fill="#F5FAFF"/>
<path d="M303.58 105.757H99.3221C96.1812 105.757 93.6349 108.303 93.6349 111.444V258.604C93.6349 261.745 96.1812 264.292 99.3221 264.292H303.58C306.721 264.292 309.267 261.745 309.267 258.604V111.444C309.267 108.303 306.721 105.757 303.58 105.757Z" fill="#80C1FF"/>
<path d="M98.7602 105.757H304.13C304.806 105.755 305.474 105.887 306.099 106.145C306.723 106.403 307.29 106.782 307.767 107.259C308.244 107.737 308.622 108.304 308.88 108.929C309.137 109.553 309.269 110.222 309.267 110.897V241.569H93.6349V110.897C93.6329 110.223 93.764 109.555 94.0207 108.931C94.2774 108.308 94.6546 107.741 95.1308 107.263C95.6069 106.786 96.1725 106.407 96.7954 106.149C97.4182 105.89 98.0858 105.757 98.7602 105.757Z" fill="#CCE6FF"/>
<path d="M295.567 229.419V117.911L107.337 117.911V229.419H295.567Z" fill="white"/>
<path d="M229.721 264.295H173.182V282.59H229.721V264.295Z" fill="#80C1FF"/>
<path d="M240.182 288.108H162.722C162.323 288.108 161.928 288.03 161.56 287.877C161.191 287.725 160.856 287.501 160.574 287.219C160.292 286.936 160.068 286.601 159.915 286.233C159.762 285.864 159.684 285.469 159.684 285.07C159.684 284.671 159.762 284.276 159.915 283.907C160.068 283.539 160.292 283.204 160.574 282.922C160.856 282.639 161.191 282.416 161.56 282.263C161.928 282.11 162.323 282.032 162.722 282.032H240.182C240.988 282.032 241.761 282.352 242.33 282.922C242.9 283.491 243.22 284.264 243.22 285.07C243.22 285.876 242.9 286.649 242.33 287.219C241.761 287.788 240.988 288.108 240.182 288.108Z" fill="#80C1FF"/>
<path d="M201.448 256.004C200.814 256.004 200.194 255.816 199.667 255.464C199.139 255.111 198.728 254.61 198.485 254.024C198.243 253.438 198.179 252.793 198.303 252.171C198.427 251.549 198.732 250.978 199.181 250.529C199.629 250.081 200.2 249.775 200.823 249.652C201.445 249.528 202.09 249.591 202.676 249.834C203.262 250.077 203.762 250.488 204.115 251.015C204.467 251.543 204.655 252.163 204.655 252.797C204.654 253.647 204.316 254.462 203.715 255.064C203.114 255.665 202.298 256.003 201.448 256.004ZM201.448 250.171C200.93 250.171 200.423 250.324 199.991 250.613C199.56 250.901 199.224 251.31 199.025 251.79C198.827 252.269 198.775 252.796 198.876 253.305C198.977 253.814 199.227 254.281 199.594 254.648C199.961 255.014 200.428 255.264 200.937 255.365C201.445 255.467 201.973 255.415 202.452 255.216C202.931 255.018 203.341 254.682 203.629 254.25C203.917 253.819 204.071 253.312 204.071 252.793C204.071 252.098 203.795 251.431 203.303 250.939C202.811 250.447 202.144 250.171 201.448 250.171Z" fill="white"/>
<path d="M295.562 117.933H107.475V127.045H295.562V117.933Z" fill="#80C1FF"/>
<path d="M290.837 124.52C290.8 124.52 290.763 124.513 290.728 124.499C290.693 124.485 290.662 124.464 290.635 124.437L287.151 120.953C287.124 120.926 287.102 120.894 287.088 120.859C287.073 120.824 287.066 120.787 287.066 120.749C287.066 120.711 287.073 120.673 287.088 120.638C287.102 120.603 287.124 120.572 287.151 120.545C287.177 120.518 287.209 120.497 287.243 120.482C287.278 120.468 287.315 120.46 287.353 120.46C287.391 120.46 287.428 120.468 287.463 120.482C287.497 120.497 287.529 120.518 287.555 120.545L291.043 124.033C291.07 124.059 291.091 124.091 291.106 124.125C291.12 124.16 291.128 124.197 291.128 124.235C291.128 124.273 291.12 124.31 291.106 124.345C291.091 124.379 291.07 124.411 291.043 124.437C291.016 124.464 290.984 124.485 290.948 124.499C290.913 124.513 290.875 124.52 290.837 124.52Z" fill="white"/>
<path d="M287.353 124.52C287.296 124.52 287.241 124.504 287.193 124.472C287.146 124.441 287.109 124.396 287.088 124.344C287.066 124.292 287.06 124.234 287.071 124.179C287.083 124.123 287.11 124.072 287.15 124.033L290.635 120.545C290.661 120.518 290.693 120.496 290.728 120.482C290.763 120.467 290.801 120.46 290.839 120.46C290.877 120.46 290.914 120.467 290.949 120.482C290.984 120.496 291.016 120.518 291.043 120.545C291.07 120.571 291.091 120.603 291.106 120.638C291.12 120.673 291.128 120.711 291.128 120.749C291.128 120.787 291.12 120.824 291.106 120.859C291.091 120.894 291.07 120.926 291.043 120.953L287.555 124.437C287.529 124.464 287.497 124.485 287.462 124.499C287.428 124.514 287.39 124.521 287.353 124.52Z" fill="white"/>
<path d="M253.761 124.759H152.02C151.416 124.759 150.837 124.519 150.41 124.092C149.982 123.665 149.742 123.086 149.742 122.481C149.742 121.877 149.982 121.297 150.409 120.869C150.836 120.442 151.416 120.201 152.02 120.2H253.761C254.366 120.201 254.945 120.442 255.372 120.869C255.799 121.297 256.039 121.877 256.039 122.481C256.039 123.086 255.799 123.665 255.372 124.092C254.945 124.519 254.365 124.759 253.761 124.759Z" fill="white"/>
<path d="M173.182 264.295H229.721L173.118 271.747L173.182 264.295Z" fill="#52ABFF"/>
<path d="M255.46 150.449H152.973V205.883H255.46V150.449Z" stroke="#52ABFF" stroke-width="2" stroke-miterlimit="10"/>
<path d="M152.973 150.449L204.215 192.025L255.456 150.449" stroke="#52ABFF" stroke-width="2" stroke-miterlimit="10"/>
<path d="M152.973 205.883L184.976 178.166" stroke="#52ABFF" stroke-width="2" stroke-miterlimit="10"/>
<path d="M254.837 205.883L222.834 178.166" stroke="#52ABFF" stroke-width="2" stroke-miterlimit="10"/>
<path d="M307.173 179.811C307.173 179.811 249.476 155.432 252.923 81.9515C257.534 80.7518 261.617 78.0564 264.533 74.2875C267.448 70.5187 269.031 65.8893 269.033 61.1245C269.033 60.9559 269.033 60.7911 269.033 60.6262L268.737 47.6182H345.65L345.35 60.6262C345.35 60.7911 345.35 60.9559 345.35 61.1245C345.352 65.8893 346.935 70.5187 349.85 74.2875C352.766 78.0564 356.849 80.7518 361.46 81.9515C364.858 155.432 307.173 179.811 307.173 179.811Z" fill="#FF9800"/>
<path d="M307.173 172.119C288.449 161.842 273.952 145.287 266.235 125.37C261.739 113.673 259.528 100.722 259.682 86.8032C264.539 84.4956 268.643 80.8584 271.516 76.3134C274.39 71.7684 275.917 66.5018 275.92 61.1244C275.92 60.9109 275.92 60.7011 275.92 60.4913L275.785 54.5193H338.58L338.442 60.5137C338.442 60.7161 338.442 60.9221 338.442 61.1319C338.444 66.5093 339.971 71.7759 342.845 76.3209C345.719 80.8659 349.822 84.5031 354.679 86.8107C354.833 100.729 352.634 113.681 348.127 125.378C340.404 145.294 325.902 161.846 307.173 172.119Z" fill="#FFC775" fill-opacity="0.4"/>
<path d="M287.71 106.795L300.857 123.096L327.94 85.2335" stroke="white" stroke-width="8" stroke-linejoin="bevel"/>
<path d="M50.8638 293.825L70.8553 270.432L71.406 232.03C71.497 230.047 71.9623 228.1 72.7773 226.29L80.4277 209.139C80.7504 208.415 81.3117 207.825 82.0178 207.466C82.7238 207.108 83.5317 207.003 84.3061 207.168C85.0804 207.334 85.7743 207.761 86.2713 208.378C86.7684 208.994 87.0386 209.763 87.0366 210.555C87.0413 210.909 86.9843 211.262 86.868 211.596L93.4881 199.233C93.9522 198.33 94.7081 197.611 95.6327 197.193C96.5574 196.774 97.5964 196.681 98.5808 196.928C99.5652 197.175 100.437 197.748 101.054 198.554C101.672 199.359 101.999 200.35 101.982 201.365C101.979 202.156 101.766 202.932 101.363 203.613L104.361 198.495C104.699 197.872 105.161 197.324 105.717 196.884C106.274 196.444 106.914 196.122 107.598 195.936C108.283 195.751 108.998 195.706 109.7 195.805C110.403 195.904 111.078 196.145 111.685 196.512C112.291 196.879 112.817 197.365 113.231 197.942C113.644 198.518 113.937 199.172 114.09 199.865C114.244 200.557 114.255 201.273 114.124 201.97C113.992 202.667 113.721 203.331 113.326 203.92L116.582 198.731L130.819 174.839C131.137 174.307 131.586 173.865 132.122 173.554C132.672 173.241 133.295 173.077 133.928 173.078C134.561 173.08 135.182 173.248 135.73 173.565C136.278 173.882 136.734 174.337 137.051 174.884C137.369 175.432 137.537 176.053 137.54 176.686C137.542 177.116 137.466 177.543 137.315 177.945L113.978 240.64C113.801 241.113 113.802 241.634 113.982 242.106C114.162 242.578 114.508 242.968 114.956 243.202C115.256 243.364 115.592 243.447 115.934 243.446C116.307 243.444 116.673 243.344 116.994 243.154C117.315 242.964 117.58 242.693 117.762 242.367L134.333 212.226C134.723 211.51 135.359 210.959 136.123 210.676C136.888 210.393 137.729 210.397 138.492 210.686C139.032 210.888 139.509 211.228 139.878 211.671C140.393 212.28 140.675 213.051 140.676 213.848C140.677 214.24 140.607 214.628 140.47 214.995L139.042 218.947L129.676 244.997C126.126 254.864 119.984 263.593 111.895 270.267L102.176 278.285L74.7592 320.19" fill="white"/>
<path d="M75.0429 320.374L102.419 278.506L112.096 270.522C120.23 263.811 126.408 255.034 129.982 245.113L140.783 215.107C140.932 214.704 141.008 214.278 141.008 213.848C141.008 212.973 140.697 212.126 140.131 211.458C139.727 210.97 139.201 210.597 138.607 210.375C137.771 210.06 136.849 210.056 136.011 210.364C135.172 210.673 134.472 211.272 134.04 212.054L117.472 242.195C117.319 242.469 117.096 242.698 116.825 242.857C116.555 243.017 116.247 243.103 115.933 243.105C115.647 243.107 115.366 243.036 115.116 242.899C114.739 242.702 114.448 242.375 114.296 241.978C114.144 241.581 114.143 241.143 114.292 240.745L137.599 178.065C137.765 177.626 137.849 177.16 137.846 176.69C137.847 175.998 137.665 175.317 137.319 174.717C136.973 174.117 136.475 173.619 135.876 173.272C135.276 172.925 134.596 172.743 133.903 172.742C133.211 172.742 132.53 172.924 131.93 173.27C131.344 173.608 130.854 174.09 130.507 174.671L116.27 198.563L114.415 201.519C114.415 201.396 114.415 201.271 114.415 201.144C114.404 199.93 113.996 198.752 113.254 197.791C112.512 196.83 111.476 196.138 110.303 195.821C109.131 195.503 107.887 195.578 106.762 196.033C105.636 196.488 104.69 197.299 104.067 198.341L102.321 201.339C102.311 200.263 101.943 199.22 101.276 198.376C100.608 197.532 99.6788 196.935 98.6339 196.677C97.5891 196.419 96.4882 196.517 95.5048 196.954C94.5214 197.391 93.7114 198.143 93.2023 199.091L87.339 210.031C87.2239 209.217 86.8474 208.463 86.2661 207.882C85.6849 207.301 84.9306 206.925 84.1169 206.811C83.3032 206.696 82.4743 206.849 81.7553 207.247C81.0362 207.644 80.466 208.265 80.1307 209.015L72.4802 226.167C71.6553 228.012 71.1863 229.996 71.0978 232.015L70.5508 270.305L50.6379 293.608L51.1437 294.043L71.2139 270.556L71.7609 232.038C71.85 230.097 72.3051 228.19 73.1022 226.418L80.7526 209.27C81.0516 208.628 81.5601 208.106 82.1945 207.791C82.8288 207.476 83.5516 207.385 84.2441 207.535C84.9366 207.684 85.5577 208.064 86.0057 208.613C86.4537 209.162 86.7019 209.847 86.7096 210.555C86.7135 210.872 86.6628 211.188 86.5597 211.488L87.1667 211.754L93.783 199.391C94.2228 198.569 94.9246 197.917 95.7769 197.54C96.6293 197.163 97.5833 197.081 98.4874 197.308C99.3915 197.535 100.194 198.057 100.767 198.792C101.34 199.527 101.651 200.433 101.651 201.365C101.65 202.083 101.461 202.788 101.104 203.411L101.074 203.459L101.647 203.796L101.673 203.751L104.629 198.682C104.963 198.131 105.402 197.65 105.921 197.269C106.44 196.887 107.03 196.611 107.656 196.457C108.281 196.303 108.932 196.273 109.569 196.37C110.206 196.467 110.818 196.689 111.369 197.023C111.921 197.356 112.401 197.795 112.783 198.314C113.165 198.834 113.441 199.423 113.595 200.049C113.749 200.675 113.779 201.325 113.681 201.962C113.584 202.599 113.363 203.211 113.029 203.763L113.595 204.115L116.854 198.941L131.091 175.042C131.381 174.56 131.788 174.159 132.275 173.877C132.774 173.591 133.34 173.441 133.915 173.442C134.49 173.443 135.055 173.595 135.553 173.883C136.051 174.171 136.465 174.584 136.753 175.082C137.041 175.58 137.193 176.145 137.194 176.72C137.196 177.104 137.127 177.485 136.992 177.844L113.67 240.527C113.465 241.075 113.465 241.679 113.672 242.226C113.879 242.773 114.278 243.227 114.794 243.502C115.139 243.688 115.525 243.785 115.918 243.783C116.35 243.781 116.774 243.665 117.146 243.445C117.519 243.226 117.826 242.912 118.038 242.536L134.605 212.387C134.96 211.746 135.534 211.253 136.221 210.999C136.909 210.744 137.665 210.745 138.352 211.001C138.839 211.181 139.271 211.486 139.603 211.885C140.068 212.436 140.324 213.132 140.326 213.852C140.326 214.204 140.263 214.553 140.139 214.882L129.334 244.892C125.801 254.701 119.693 263.378 111.65 270.013L101.868 278.105L74.4697 320.01L75.0429 320.374Z" fill="#FF9800"/>
<path d="M113.017 203.79L101.953 226.535L102.55 226.825L113.614 204.08L113.017 203.79Z" fill="#FF9800"/>
<path d="M101.181 202.151L89.5417 222.816L90.1187 223.141L101.758 202.476L101.181 202.151Z" fill="#FF9800"/>
<path d="M86.9937 210.64L81.1577 220.712L81.7315 221.045L87.5675 210.973L86.9937 210.64Z" fill="#FF9800"/>
<path d="M132.445 179.084C133.102 179.412 133.862 179.466 134.559 179.234C135.255 179.003 135.832 178.504 136.161 177.848L137.034 176.087C137.139 175.876 137.214 175.651 137.259 175.42C137.073 174.932 136.783 174.491 136.41 174.126C136.037 173.761 135.588 173.481 135.097 173.306C134.605 173.131 134.081 173.065 133.561 173.113C133.041 173.16 132.537 173.32 132.085 173.58C132.085 173.58 132.085 173.58 132.085 173.599L131.197 175.338C131.031 175.665 130.932 176.022 130.905 176.388C130.878 176.755 130.924 177.122 131.04 177.471C131.156 177.819 131.34 178.141 131.581 178.418C131.822 178.695 132.116 178.921 132.445 179.084Z" fill="#FF9800"/>
<path d="M138.05 218.674C138.359 218.832 138.697 218.926 139.043 218.947L140.471 214.995C140.608 214.628 140.678 214.24 140.677 213.848C140.676 213.051 140.394 212.28 139.879 211.671C139.418 211.716 138.975 211.877 138.593 212.139C138.211 212.401 137.902 212.756 137.695 213.17L136.81 214.935C136.645 215.261 136.547 215.618 136.52 215.983C136.493 216.348 136.539 216.714 136.654 217.062C136.769 217.409 136.952 217.73 137.191 218.007C137.431 218.284 137.723 218.51 138.05 218.674Z" fill="#FF9800"/>
</svg>
